<?xml version="1.0" standalone="no"?>
<!DOCTYPE svg PUBLIC "-//W3C//DTD SVG 20010904//EN"
 "http://www.w3.org/TR/2001/REC-SVG-20010904/DTD/svg10.dtd">
<svg version="1.0" xmlns="http://www.w3.org/2000/svg"
 width="128.000000pt" height="128.000000pt" viewBox="0 0 128.000000 128.000000"
 preserveAspectRatio="xMidYMid meet">
<metadata>
Created by potrace 1.14, written by Peter Selinger 2001-2017
</metadata>
<g transform="translate(0.000000,128.000000) scale(0.100000,-0.100000)"
fill="#000000" stroke="none">
<path d="M486 1255 c-225 -57 -408 -244 -462 -471 -24 -101 -15 -256 19 -354
64 -180 218 -332 399 -391 61 -20 93 -24 198 -24 105 0 137 4 198 24 185 61
342 217 403 402 20 62 24 94 24 199 0 105 -4 137 -24 199 -60 182 -209 333
-393 399 -92 32 -268 40 -362 17z m193 -184 c-2 -44 -1 -77 3 -75 4 3 17 22
29 44 13 22 26 40 29 40 4 0 17 -11 30 -25 l24 -25 -63 -64 c-69 -70 -70 -76
-14 -127 28 -26 123 -56 141 -45 6 3 13 21 16 40 4 19 13 57 21 84 15 50 16
50 47 42 17 -5 33 -12 36 -14 2 -3 -7 -25 -22 -50 -14 -24 -26 -47 -26 -50 0
-4 29 12 64 34 35 22 66 40 69 40 7 0 40 -61 35 -64 -2 -2 -32 -18 -68 -37
l-65 -34 58 -3 58 -3 -6 -32 c-4 -18 -9 -35 -11 -39 -2 -3 -39 3 -82 15 -44
11 -86 18 -94 14 -26 -9 -41 -93 -27 -150 6 -26 18 -51 25 -54 8 -3 50 4 94
15 44 11 82 17 84 13 2 -3 7 -21 11 -38 l7 -33 -59 0 -58 0 65 -37 c36 -20 67
-37 68 -39 5 -4 -31 -64 -38 -64 -3 0 -32 18 -65 40 -32 21 -60 38 -62 36 -2
-2 9 -24 23 -50 14 -26 25 -48 23 -50 -2 -2 -18 -8 -36 -14 l-32 -11 -16 54
c-8 30 -18 68 -22 86 -8 39 -22 44 -81 29 -45 -12 -122 -72 -122 -94 0 -6 28
-39 62 -73 l62 -63 -24 -25 c-13 -14 -26 -25 -30 -25 -3 0 -16 18 -29 40 -12
22 -25 41 -29 44 -4 2 -6 -29 -4 -70 l4 -74 -41 0 -42 0 7 75 c4 41 4 75 1 75
-3 0 -18 -20 -33 -45 -14 -25 -29 -45 -33 -45 -4 0 -18 12 -32 26 l-24 25 63
61 c34 33 62 66 62 72 0 7 -17 28 -38 49 -26 26 -53 40 -90 48 -64 15 -62 17
-86 -87 l-18 -76 -35 5 c-20 4 -37 8 -39 10 -3 2 7 24 21 48 13 24 25 47 25
51 0 4 -29 -11 -65 -34 -36 -22 -67 -39 -69 -37 -2 2 -10 18 -19 35 l-16 30
67 35 67 34 -58 3 c-48 2 -58 6 -53 18 3 9 6 21 6 27 1 34 15 37 85 17 106
-30 111 -29 125 31 10 40 10 63 1 105 -15 63 -19 64 -126 35 -70 -20 -84 -17
-85 16 0 6 -3 18 -6 27 -5 14 4 16 57 16 l64 1 -70 36 c-38 19 -71 36 -73 38
-4 4 32 65 39 65 3 0 34 -18 67 -40 34 -22 62 -37 62 -34 0 2 -11 26 -24 53
l-25 48 35 11 c40 12 42 10 64 -91 17 -75 27 -83 88 -67 50 14 122 72 122 100
0 9 -27 42 -60 75 l-60 59 22 23 c12 13 25 23 29 23 5 0 20 -20 35 -45 14 -25
28 -45 31 -45 3 0 2 36 -1 80 l-7 80 41 0 42 0 -3 -79z"/>
<path d="M592 788 c-12 -13 -37 -28 -54 -34 l-32 -11 54 -35 55 -35 3 34 c2
18 2 49 0 68 l-3 36 -23 -23z"/>
<path d="M665 768 c-4 -19 -5 -49 -3 -66 l3 -32 59 39 58 39 -33 7 c-19 4 -44
16 -56 27 l-22 20 -6 -34z"/>
<path d="M485 635 l0 -64 55 31 c30 17 56 32 58 33 1 1 -24 16 -55 33 l-58 31
0 -64z"/>
<path d="M748 671 c-26 -15 -50 -30 -54 -33 -5 -5 85 -58 98 -58 2 0 4 27 4
60 0 33 0 60 0 59 -1 -1 -22 -13 -48 -28z"/>
<path d="M560 563 l-55 -36 30 -10 c17 -5 42 -21 58 -35 l27 -26 0 72 c0 40
-1 72 -2 71 -2 0 -28 -16 -58 -36z"/>
<path d="M660 559 c0 -24 3 -54 6 -67 7 -23 7 -23 28 -3 11 11 36 23 55 28
l35 9 -36 21 c-19 11 -47 28 -61 38 l-27 17 0 -43z"/>
</g>
</svg>
